<svg xmlns="http://www.w3.org/2000/svg" width="16" height="11" viewBox="0 0 16 11" fill="none">
  <path d="M8 0.666687C4.66667 0.666687 1.82001 2.74002 0.666672 5.66669C1.82001 8.59335 4.66667 10.6667 8 10.6667C11.3333 10.6667 14.18 8.59335 15.3333 5.66669C14.18 2.74002 11.3333 0.666687 8 0.666687ZM8 9.00002C6.16 9.00002 4.66667 7.50669 4.66667 5.66669C4.66667 3.82669 6.16 2.33335 8 2.33335C9.84 2.33335 11.3333 3.82669 11.3333 5.66669C11.3333 7.50669 9.84 9.00002 8 9.00002ZM8 3.66669C6.89334 3.66669 6 4.56002 6 5.66669C6 6.77335 6.89334 7.66669 8 7.66669C9.10667 7.66669 10 6.77335 10 5.66669C10 4.56002 9.10667 3.66669 8 3.66669Z" fill="#6D747A"/>
</svg>